<svg width="1440" height="1024" viewBox="0 0 1440 1024" fill="none" xmlns="http://www.w3.org/2000/svg">
<g clip-path="url(#clip0_1_11)">
<path d="M1722 -28H-198V1052H1722V-28Z" fill="#140C37"/>
<path d="M-198 -518C-128.667 -505.333 95.3333 -483.333 218 -442C340.667 -400.667 420.667 -316.667 538 -270C655.333 -223.333 783.333 -187.333 922 -162C1060.67 -136.667 1236.67 -148.667 1370 -118C1503.33 -87.3333 1663.33 -1.33331 1722 22V1052H-198V-518Z" fill="url(#paint0_linear_1_11)"/>
<path d="M-198 -443.03C-123.333 -425.237 95.3333 -377.192 250 -336.273C404.667 -295.353 570 -243.768 730 -197.515C890 -151.263 1044.67 -110.343 1210 -58.7575C1375.33 -7.17169 1636.67 83.5404 1722 112V1052H-198V-443.03Z" fill="url(#paint1_linear_1_11)"/>
<path d="M-198 -368.06C-146.952 -349.154 22.1905 -287.102 108.286 -254.623C194.381 -222.144 237.81 -200.331 318.571 -173.186C399.333 -146.04 501.429 -118.894 592.857 -91.7486C684.286 -64.6029 765.048 -37.4572 867.143 -10.3115C969.238 16.8342 1114 54.6466 1205.43 71.1257C1296.86 87.6047 1329.62 66.7504 1415.71 88.5628C1501.81 110.375 1670.95 183.094 1722 202V1052H-198V-368.06Z" fill="url(#paint2_linear_1_11)"/>
<path d="M-198 -393.09C-139.333 -371.504 42 -301.413 154 -263.575C266 -225.737 378 -187.898 474 -166.06C570 -144.222 623.333 -154.383 730 -132.545C836.667 -110.707 996.667 -67.535 1114 -35.03C1231.33 -2.52496 1332.67 24.6467 1434 62.485C1535.33 100.323 1674 170.414 1722 192V1052H-198V-393.09Z" fill="url(#paint3_linear_1_11)"/>
<path d="M-198 -218.12C-157.619 -209.165 -52.4762 -187.632 44.2857 -164.389C141.048 -141.145 291.143 -107.234 382.571 -78.6571C474 -50.08 512.095 -21.5029 592.857 7.07428C673.619 35.6514 775.714 53.5619 867.143 92.8057C958.571 132.05 1050 213.96 1141.43 242.537C1232.86 271.114 1318.95 241.025 1415.71 264.269C1512.48 287.512 1670.95 362.378 1722 382V1052H-198V-218.12Z" fill="url(#paint4_linear_1_11)"/>
<path d="M-198 -143.15C-139.333 -117.312 20.6667 -34.4634 154 11.88C287.333 58.2233 463.333 93.9 602 134.91C740.667 175.92 858 227.597 986 257.94C1114 288.283 1247.33 281.293 1370 316.97C1492.67 352.647 1663.33 446.162 1722 472V1052H-198V-143.15Z" fill="url(#paint5_linear_1_11)"/>
<path d="M-198 -68.18C-112.667 -36.5892 159.333 74.1833 314 121.365C468.667 168.547 580.667 162.395 730 214.91C879.333 267.425 1044.67 378.607 1210 436.455C1375.33 494.303 1636.67 541.076 1722 562V1052H-198V-68.18Z" fill="url(#paint6_linear_1_11)"/>
<path d="M-198 -93.21C-139.333 -69.9542 52.6667 15.8133 154 46.325C255.333 76.8367 314 64.6817 410 89.86C506 115.038 612.667 150.883 730 197.395C847.333 243.907 1007.33 333.085 1114 368.93C1220.67 404.775 1268.67 381.953 1370 412.465C1471.33 442.977 1663.33 528.744 1722 552V1052H-198V-93.21Z" fill="url(#paint7_linear_1_11)"/>
<path d="M-198 -18.24C-150 5.43334 -22 81.7867 90 123.8C202 165.813 356.667 197.16 474 233.84C591.333 270.52 698 307.2 794 343.88C890 380.56 943.333 417.24 1050 453.92C1156.67 490.6 1322 532.613 1434 563.96C1546 595.307 1674 628.993 1722 642V1052H-198V-18.24Z" fill="url(#paint8_linear_1_11)"/>
<path d="M-198 56.73C-139.333 84.5723 20.6667 173.433 154 223.784C287.333 274.135 463.333 313.82 602 358.838C740.667 403.856 868.667 459.541 986 493.892C1103.33 528.243 1183.33 525.261 1306 564.946C1428.67 604.631 1652.67 704.158 1722 732V1052H-198V56.73Z" fill="url(#paint9_linear_1_11)"/>
<path d="M-198 231.7C-150 245.542 -11.3333 271.067 90 314.75C191.333 358.433 303.333 455.45 410 493.8C516.667 532.15 623.333 506.5 730 544.85C836.667 583.2 932.667 674.883 1050 723.9C1167.33 772.917 1322 805.933 1434 838.95C1546 871.967 1674 908.158 1722 922V1052H-198V231.7Z" fill="url(#paint10_linear_1_11)"/>
<path d="M-198 306.67C-139.333 324.848 20.6667 363.381 154 415.736C287.333 468.091 474 573.78 602 620.802C730 667.824 804.667 650.846 922 697.868C1039.33 744.89 1172.67 850.579 1306 902.934C1439.33 955.289 1652.67 993.822 1722 1012V1052H-198V306.67Z" fill="url(#paint11_linear_1_11)"/>
</g>
<defs>
<linearGradient id="paint0_linear_1_11" x1="762" y1="-518" x2="762" y2="1052" gradientUnits="userSpaceOnUse">
<stop stop-color="#372682"/>
<stop offset="1" stop-color="#0C030A"/>
</linearGradient>
<linearGradient id="paint1_linear_1_11" x1="762" y1="-443.03" x2="762" y2="1052" gradientUnits="userSpaceOnUse">
<stop stop-color="#372682"/>
<stop offset="1" stop-color="#0C030A"/>
</linearGradient>
<linearGradient id="paint2_linear_1_11" x1="762" y1="-368.06" x2="762" y2="1052" gradientUnits="userSpaceOnUse">
<stop stop-color="#263A82"/>
<stop offset="1" stop-color="#0A030C"/>
</linearGradient>
<linearGradient id="paint3_linear_1_11" x1="762" y1="-393.09" x2="762" y2="1052" gradientUnits="userSpaceOnUse">
<stop stop-color="#EFB7F0"/>
<stop offset="1" stop-color="#D5393C"/>
</linearGradient>
<linearGradient id="paint4_linear_1_11" x1="762" y1="-218.12" x2="762" y2="1052" gradientUnits="userSpaceOnUse">
<stop stop-color="#E4B7F0"/>
<stop offset="1" stop-color="#D5395B"/>
</linearGradient>
<linearGradient id="paint5_linear_1_11" x1="762" y1="-143.15" x2="762" y2="1052" gradientUnits="userSpaceOnUse">
<stop stop-color="#B7C4F0"/>
<stop offset="1" stop-color="#B339D5"/>
</linearGradient>
<linearGradient id="paint6_linear_1_11" x1="762" y1="-68.18" x2="762" y2="1052" gradientUnits="userSpaceOnUse">
<stop stop-color="#F0B7DA"/>
<stop offset="1" stop-color="#D57539"/>
</linearGradient>
<linearGradient id="paint7_linear_1_11" x1="762" y1="-93.21" x2="762" y2="1052" gradientUnits="userSpaceOnUse">
<stop stop-color="#F0B7E5"/>
<stop offset="1" stop-color="#D55639"/>
</linearGradient>
<linearGradient id="paint8_linear_1_11" x1="762" y1="-18.24" x2="762" y2="1052" gradientUnits="userSpaceOnUse">
<stop stop-color="#F0B7DA"/>
<stop offset="1" stop-color="#D57539"/>
</linearGradient>
<linearGradient id="paint9_linear_1_11" x1="762" y1="56.73" x2="762" y2="1052" gradientUnits="userSpaceOnUse">
<stop stop-color="#C2B7F0"/>
<stop offset="1" stop-color="#D539B8"/>
</linearGradient>
<linearGradient id="paint10_linear_1_11" x1="762" y1="231.7" x2="762" y2="1052" gradientUnits="userSpaceOnUse">
<stop stop-color="#F0B7DA"/>
<stop offset="1" stop-color="#D57539"/>
</linearGradient>
<linearGradient id="paint11_linear_1_11" x1="762" y1="306.67" x2="762" y2="1052" gradientUnits="userSpaceOnUse">
<stop stop-color="#EFB7F0"/>
<stop offset="1" stop-color="#D5393C"/>
</linearGradient>
<clipPath id="clip0_1_11">
<rect width="1920" height="1080" fill="white" transform="translate(-198 -28)"/>
</clipPath>
</defs>
</svg>
